<svg id="line" height="512" viewBox="0 0 64 64" width="512" xmlns="http://www.w3.org/2000/svg"><path d="m59.5 13h-28a3 3 0 0 0 -3 3v46a1 1 0 0 0 1.447.895l14.553-7.278v-21.617a1 1 0 1 1 2 0v21.617l14.553 7.277a1 1 0 0 0 1.447-.894v-46a3 3 0 0 0 -3-3z" fill="#c4a2fc"/><g fill="#151a6a"><path d="m48.5 1h-44a3 3 0 0 0 -3 3v44a3 3 0 0 0 3 3h44a3 3 0 0 0 3-3v-44a3 3 0 0 0 -3-3zm1 47a1 1 0 0 1 -1 1h-44a1 1 0 0 1 -1-1v-37h46zm0-39h-46v-5a1 1 0 0 1 1-1h44a1 1 0 0 1 1 1z"/><path d="m45.5 5h-9a1 1 0 0 0 0 2h9a1 1 0 0 0 0-2z"/><path d="m19.17 36.944a1 1 0 0 0 .66 0c7.223-2.526 12.67-8.62 12.67-14.175v-1.063a7.785 7.785 0 0 0 -3.978-6.914c-3.122-1.692-6.542-.627-9.022 2.68-2.481-3.307-5.9-4.367-9.021-2.68a7.785 7.785 0 0 0 -3.979 6.914v1.063c0 5.555 5.447 11.649 12.67 14.175zm-10.67-15.238a5.789 5.789 0 0 1 2.929-5.155 4.35 4.35 0 0 1 2.085-.551c1.864 0 3.684 1.315 5.122 3.792a1.04 1.04 0 0 0 1.73 0c1.972-3.4 4.665-4.61 7.205-3.236a5.789 5.789 0 0 1 2.929 5.15v1.063c0 4.028-4.106 9.629-11 12.168-6.894-2.539-11-8.14-11-12.168z"/><path d="m7.5 43h38a1 1 0 0 0 0-2h-38a1 1 0 0 0 0 2z"/><path d="m36.5 35h9a1 1 0 0 0 0-2h-9a1 1 0 0 0 0 2z"/><path d="m36.5 27h9a1 1 0 0 0 0-2h-9a1 1 0 0 0 0 2z"/><path d="m36.5 19h9a1 1 0 0 0 0-2h-9a1 1 0 0 0 0 2z"/></g></svg>