<svg id="Line" height="512" viewBox="0 0 64 64" width="512" xmlns="http://www.w3.org/2000/svg"><g fill="#c4a2fc"><path d="m59 13h-44a3 3 0 0 0 -3 3v44a3 3 0 0 0 3 3h44a3 3 0 0 0 3-3v-44a3 3 0 0 0 -3-3zm1 47a1 1 0 0 1 -1 1h-44a1 1 0 0 1 -1-1v-44a1 1 0 0 1 1-1h44a1 1 0 0 1 1 1z"/><path d="m41.039 32.958-4.039-8.604-4.039 8.6a1 1 0 0 1 -.754.564l-9.132 1.4 6.641 6.807a1 1 0 0 1 .271.859l-1.557 9.544 8.087-4.469a.994.994 0 0 1 .966 0l8.087 4.469-1.557-9.545a1 1 0 0 1 .271-.859l6.641-6.807-9.132-1.4a1 1 0 0 1 -.754-.559z"/><path d="m55 17h-36a3 3 0 0 0 -3 3v36a3 3 0 0 0 3 3h36a3 3 0 0 0 3-3v-36a3 3 0 0 0 -3-3zm-1.284 17.921-7.648 7.838 1.808 11.08a1 1 0 0 1 -1.471 1.036l-9.405-5.199-9.405 5.2a1 1 0 0 1 -1.471-1.036l1.808-11.08-7.648-7.838a1 1 0 0 1 .565-1.686l10.528-1.609 4.723-10.052a1 1 0 0 1 1.81 0l4.718 10.051 10.528 1.609a1 1 0 0 1 .56 1.686z"/></g><path d="m49 5h-5v-3a1 1 0 0 0 -2 0v3h-30v-3a1 1 0 0 0 -2 0v3h-5a3 3 0 0 0 -3 3v31a1.081 1.081 0 0 0 .4.8l12 9a1.207 1.207 0 0 0 .6.2h34a3 3 0 0 0 3-3v-38a3 3 0 0 0 -3-3zm-45 3a1 1 0 0 1 1-1h5v3a1 1 0 0 0 2 0v-3h30v3a1 1 0 0 0 2 0v-3h5a1 1 0 0 1 1 1v7h-46zm10 38-8-6h8zm36 0a1 1 0 0 1 -1 1h-33v-8a1 1 0 0 0 -1-1h-11v-21h46z" fill="#151a6a"/><path d="m20.144 34.386-1.276 7.44a1 1 0 0 0 1.451 1.054l6.681-3.512 6.681 3.512a1 1 0 0 0 1.451-1.054l-1.276-7.44 5.406-5.269a1 1 0 0 0 -.555-1.705l-7.47-1.086-3.337-6.768a1.04 1.04 0 0 0 -1.792 0l-3.341 6.768-7.47 1.086a1 1 0 0 0 -.555 1.705zm3.426-6.156a1 1 0 0 0 .753-.547l2.677-5.423 2.677 5.423a1 1 0 0 0 .753.547l5.985.87-4.331 4.221a1 1 0 0 0 -.287.885l1.021 5.961-5.352-2.814a1 1 0 0 0 -.932 0l-5.352 2.814 1.018-5.961a1 1 0 0 0 -.287-.885l-4.328-4.221z" fill="#151a6a"/></svg>