<svg id="Icons" height="512" viewBox="0 0 64 64" width="512" xmlns="http://www.w3.org/2000/svg"><path d="m60 28h-21.93a3 3 0 0 0 -2.5 1.336l-1.77 2.664h18.2a5 5 0 0 1 5 5v19a3 3 0 0 0 3 3h3v-28a3 3 0 0 0 -3-3z" fill="#c4a2fc"/><path d="m55 56v-19a3 3 0 0 0 -3-3h-36a3 3 0 0 0 -3 3v23a3 3 0 0 0 3 3h45a2 2 0 0 0 2-2h-3a5 5 0 0 1 -5-5zm-28 4h-10a1 1 0 0 1 0-2h10a1 1 0 0 1 0 2z" fill="#c4a2fc"/><g fill="#151a6a"><path d="m45 6h-38a1 1 0 0 0 -1 1v28a1 1 0 0 0 1 1h38a1 1 0 0 0 1-1v-28a1 1 0 0 0 -1-1zm-1 2v16.057l-5.419-3.87a1 1 0 0 0 -1.067-.061l-8.34 4.634-7.467-7.467a1 1 0 0 0 -1.2-.161l-12.507 7.145v-16.277zm-36 18.58 12.833-7.333 14.753 14.753h-27.586zm30.414 7.42-7.77-7.77 7.289-4.049 6.067 4.333v7.486z"/><path d="m48 1h-44a3 3 0 0 0 -3 3v44a3 3 0 0 0 3 3h44a3 3 0 0 0 3-3v-44a3 3 0 0 0 -3-3zm1 47a1 1 0 0 1 -1 1h-44a1 1 0 0 1 -1-1v-44a1 1 0 0 1 1-1h44a1 1 0 0 1 1 1z"/><path d="m30 21a5 5 0 1 0 -5-5 5.006 5.006 0 0 0 5 5zm0-8a3 3 0 1 1 -3 3 3 3 0 0 1 3-3z"/></g></svg>