<svg id="line" height="512" viewBox="0 0 64 64" width="512" xmlns="http://www.w3.org/2000/svg"><path d="m22 31.5h32v15h-32z" fill="#c4a2fc"/><path d="m20 51.5h36a3 3 0 0 0 3-3v-19a3 3 0 0 0 -3-3h-36a3 3 0 0 0 -3 3v19a3 3 0 0 0 3 3zm0-21a1 1 0 0 1 1-1h34a1 1 0 0 1 1 1v17a1 1 0 0 1 -1 1h-34a1 1 0 0 1 -1-1z" fill="#c4a2fc"/><path d="m62 53.5h-18.25a1 1 0 0 0 -1 1 .962.962 0 0 1 -.917 1h-7.666a.962.962 0 0 1 -.917-1 1 1 0 0 0 -1-1h-18.25a1 1 0 0 0 -1 1v1a4.924 4.924 0 0 0 4.833 5h40.334a4.924 4.924 0 0 0 4.833-5v-1a1 1 0 0 0 -1-1z" fill="#c4a2fc"/><g fill="#151a6a"><path d="m40 3.5h-36a3 3 0 0 0 -3 3v30a3 3 0 0 0 3 3h36a3 3 0 0 0 3-3v-30a3 3 0 0 0 -3-3zm-36 2h36a1 1 0 0 1 1 1v5h-38v-5a1 1 0 0 1 1-1zm36 32h-36a1 1 0 0 1 -1-1v-23h38v23a1 1 0 0 1 -1 1z"/><path d="m21 16.5h-12a3 3 0 0 0 -3 3v12a3 3 0 0 0 3 3h12a3 3 0 0 0 3-3v-12a3 3 0 0 0 -3-3zm1 15a1 1 0 0 1 -1 1h-12a1 1 0 0 1 -1-1v-12a1 1 0 0 1 1-1h12a1 1 0 0 1 1 1z"/><path d="m15 21.248a3.447 3.447 0 0 0 -4.056.543 3.366 3.366 0 0 0 0 4.763l3.349 3.346a1 1 0 0 0 1.414 0l3.349-3.348a3.366 3.366 0 0 0 0-4.763 3.447 3.447 0 0 0 -4.056-.541zm2.642 3.892-2.642 2.641-2.642-2.641a1.368 1.368 0 0 1 1.935-1.935 1 1 0 0 0 1.414 0 1.368 1.368 0 1 1 1.935 1.935z"/><path d="m37 17.5h-9a1 1 0 0 0 0 2h9a1 1 0 0 0 0-2z"/><path d="m37 24.5h-9a1 1 0 0 0 0 2h9a1 1 0 0 0 0-2z"/><path d="m37 31.5h-9a1 1 0 0 0 0 2h9a1 1 0 0 0 0-2z"/><path d="m7 9.5h1a1 1 0 0 0 0-2h-1a1 1 0 0 0 0 2z"/><path d="m13 9.5h1a1 1 0 0 0 0-2h-1a1 1 0 0 0 0 2z"/><path d="m19 9.5h1a1 1 0 0 0 0-2h-1a1 1 0 0 0 0 2z"/></g></svg>